<svg version="1" xmlns="http://www.w3.org/2000/svg" width="266.667" height="266.667" viewBox="0 0 200.000000 200.000000"><path d="M127.1 64c-2.8.9-6.9 3.1-9.1 4.9-2.4 1.9-4 2.7-4.1 1.9-.1-.7-.2-2.4-.2-3.8-.2-2.5-.2-2.5-10.9-2.7-6 0-10.8.2-10.9.5-.3 2.1-.4 67.9-.1 68.9.3.9 3.4 1.3 11.1 1.3h10.7v-23.8c-.1-13 0-24.4.2-25.3.8-3.7 12.5-6.5 16.9-4.1 4.3 2.3 4.7 4.6 4.9 28.7.2 12.6.3 23.3.3 23.7.1.5 5.1.8 11.2.8h11.1l-.4-27.7c-.3-23.9-.6-28.4-2.1-31.8-2.1-4.7-6-9.1-10-11.1-4.3-2.3-12.6-2.5-18.6-.4zM59.8 103.5c-.2.2-1.5.5-2.8.7-4.8.6-10 4.6-12 9-2.5 5.5-2.5 9.2.1 14.4 6.1 12.6 25 12 30.4-.9 4-9.6-1.2-19.6-11.7-22.5-2-.5-3.8-.9-4-.7z"/></svg>