<?xml version="1.0" encoding="UTF-8"?>
<svg width="414px" height="100px" viewBox="0 0 414 100" version="1.1" xmlns="http://www.w3.org/2000/svg" xmlns:xlink="http://www.w3.org/1999/xlink">
    <!-- Generator: Sketch 47.1 (45422) - http://www.bohemiancoding.com/sketch -->
    <title>logo</title>
    <desc>Created with Sketch.</desc>
    <defs></defs>
    <g id="a" stroke="none" stroke-width="1" fill="none" fill-rule="evenodd">
        <g id="Artboard-Copy-5" transform="translate(-116.000000, -157.000000)" fill="#FFFFFF">
            <g id="logo" transform="translate(116.000000, 157.000000)">
                <path d="M0,83.3756712 C0,81.0552486 0.451186519,78.8852563 1.35357309,76.8656292 C2.25595967,74.8460021 3.50209386,73.0842261 5.09201306,71.5802485 C6.68193227,70.0762709 8.52964849,68.8731068 10.6352172,67.9707203 C12.7407858,67.0683337 14.9537483,66.6171472 17.2741709,66.6171472 C19.5086519,66.6171472 21.6356741,67.0683337 23.6553012,67.9707203 C25.6749283,68.8731068 27.4581893,70.0762709 29.0051377,71.5802485 C30.5520861,73.0842261 31.7767352,74.8460021 32.6791218,76.8656292 C33.5815084,78.8852563 34.0326949,81.0552486 34.0326949,83.3756712 C34.0326949,85.6960938 33.5815084,87.8875712 32.6791218,89.9501691 C31.7767352,92.012767 30.5520861,93.7745429 29.0051377,95.2355497 C27.4581893,96.6965566 25.6749283,97.8567505 23.6553012,98.7161662 C21.6356741,99.575582 19.5086519,100.005283 17.2741709,100.005283 C14.9537483,100.005283 12.7407858,99.575582 10.6352172,98.7161662 C8.52964849,97.8567505 6.68193227,96.6965566 5.09201306,95.2355497 C3.50209386,93.7745429 2.25595967,92.012767 1.35357309,89.9501691 C0.451186519,87.8875712 0,85.6960938 0,83.3756712 Z M114.873438,97.9426959 L92.7167355,97.9426959 L92.7167355,62.8822321 C92.7167355,60.0287032 92.6013372,57.1857078 92.370537,54.3531606 C92.1397369,51.5206135 91.7096158,49.4329526 91.0801609,48.0901155 C90.324815,46.4954963 89.2337762,45.3520037 87.8070117,44.6596033 C86.3802472,43.9672029 84.4709292,43.6210079 82.0790005,43.6210079 C80.2745631,43.6210079 78.4491712,43.9567121 76.6027701,44.6281307 C74.756369,45.2995493 72.7841065,46.3696066 70.6859234,47.8383348 L70.6859234,97.9426959 L48.6551114,97.9426959 L48.6551114,27.2552618 L70.6859234,27.2552618 L70.6859234,35.0604638 C74.2947983,31.9971165 77.8092022,29.6052237 81.2292406,27.8847136 C84.649279,26.1642034 88.4364427,25.3039613 92.5908451,25.3039613 C99.8085949,25.3039613 105.326734,27.5804558 109.145427,32.133513 C112.96412,36.6865703 114.873438,43.285257 114.873438,51.9297713 L114.873438,97.9426959 Z M167.369716,99.8310512 C154.025271,99.8310512 143.796782,96.6418608 136.683942,90.2633843 C129.571101,83.8849077 126.014734,74.7999113 126.014734,63.0081225 C126.014734,51.4681156 129.329814,42.2572301 135.960072,35.3751897 C142.590331,28.4931492 151.864161,25.0521806 163.781841,25.0521806 C174.608465,25.0521806 182.749294,27.9686113 188.204569,33.8015602 C193.659845,39.6345091 196.387443,47.9851525 196.387443,58.8537408 L196.387443,66.7848331 L148.108492,66.7848331 C148.31831,70.0579987 149.0107,72.7960866 150.185682,74.9991788 C151.360665,77.202271 152.913297,78.9542276 154.843626,80.2551011 C156.73199,81.5559746 158.935049,82.489652 161.452869,83.0561615 C163.970689,83.6226709 166.719267,83.9059214 169.698687,83.9059214 C172.258471,83.9059214 174.776253,83.6226709 177.252109,83.0561615 C179.727965,82.489652 181.993968,81.7448082 184.050188,80.8216077 C185.854625,80.0242981 187.522656,79.164056 189.054329,78.2408554 C190.586003,77.3176549 191.834403,76.4993757 192.799567,75.7859935 L195.128539,75.7859935 L195.128539,93.9771497 C193.324102,94.690532 191.677053,95.3514497 190.187343,95.9599228 C188.697633,96.5683959 186.651935,97.1873506 184.050188,97.8168055 C181.658259,98.4462605 179.192931,98.9393261 176.654129,99.2960172 C174.115328,99.6527083 171.020554,99.8310512 167.369716,99.8310512 Z M174.671356,53.5034007 C174.545465,48.8454343 173.464917,45.2995581 171.42968,42.8656658 C169.394442,40.4317734 166.278687,39.2148455 162.082321,39.2148455 C157.802027,39.2148455 154.455476,40.4947179 152.042565,43.0545013 C149.629655,45.6142846 148.297328,49.0972163 148.045546,53.5034007 L174.671356,53.5034007 Z M243.911051,99.8310512 C230.566607,99.8310512 220.338118,96.6418608 213.225277,90.2633843 C206.112437,83.8849077 202.55607,74.7999113 202.55607,63.0081225 C202.55607,51.4681156 205.871149,42.2572301 212.501408,35.3751897 C219.131666,28.4931492 228.405496,25.0521806 240.323176,25.0521806 C251.149801,25.0521806 259.290629,27.9686113 264.745905,33.8015602 C270.201181,39.6345091 272.928778,47.9851525 272.928778,58.8537408 L272.928778,66.7848331 L224.649827,66.7848331 C224.859645,70.0579987 225.552035,72.7960866 226.727018,74.9991788 C227.902001,77.202271 229.454633,78.9542276 231.384961,80.2551011 C233.273326,81.5559746 235.476385,82.489652 237.994205,83.0561615 C240.512024,83.6226709 243.260603,83.9059214 246.240023,83.9059214 C248.799806,83.9059214 251.317588,83.6226709 253.793444,83.0561615 C256.2693,82.489652 258.535304,81.7448082 260.591523,80.8216077 C262.395961,80.0242981 264.063991,79.164056 265.595665,78.2408554 C267.127339,77.3176549 268.375739,76.4993757 269.340903,75.7859935 L271.669875,75.7859935 L271.669875,93.9771497 C269.865437,94.690532 268.218388,95.3514497 266.728678,95.9599228 C265.238968,96.5683959 263.19327,97.1873506 260.591523,97.8168055 C258.199595,98.4462605 255.734267,98.9393261 253.195465,99.2960172 C250.656664,99.6527083 247.56189,99.8310512 243.911051,99.8310512 Z M251.212692,53.5034007 C251.086801,48.8454343 250.006253,45.2995581 247.971015,42.8656658 C245.935778,40.4317734 242.820023,39.2148455 238.623657,39.2148455 C234.343363,39.2148455 230.996811,40.4947179 228.583901,43.0545013 C226.17099,45.6142846 224.838664,49.0972163 224.586882,53.5034007 L251.212692,53.5034007 Z M348.525936,97.9426959 L326.495124,97.9426959 L326.495124,90.5781102 C325.06836,91.7530927 323.442292,93.0119836 321.616873,94.3548208 C319.791454,95.697658 318.186368,96.7047707 316.801567,97.3761893 C315.039093,98.2154625 313.297627,98.844908 311.577117,99.2645446 C309.856607,99.6841812 307.800418,99.8939964 305.40849,99.8939964 C297.351467,99.8939964 290.973086,96.5579354 286.273156,89.8857132 C281.573226,83.2134911 279.223296,74.2963468 279.223296,63.1340128 C279.223296,56.9653546 280.020593,51.6150681 281.615213,47.0829926 C283.209832,42.5509172 285.412891,38.6063922 288.224456,35.2492993 C290.78424,32.185952 293.889504,29.7625869 297.540342,27.9791313 C301.191181,26.1956757 305.05178,25.3039613 309.122255,25.3039613 C312.815057,25.3039613 315.846886,25.6921193 318.217833,26.4684471 C320.58878,27.2447748 323.347849,28.451212 326.495124,30.0877948 L326.495124,0 L348.525936,0 L348.525936,97.9426959 Z M326.495124,78.4296909 L326.495124,43.7468982 C325.404069,43.2013706 323.977326,42.750268 322.214852,42.3935769 C320.452378,42.0368858 318.941709,41.8585429 317.682799,41.8585429 C312.395378,41.8585429 308.419381,43.7049163 305.754688,47.3977185 C303.089996,51.0905207 301.757669,56.2519736 301.757669,62.8822321 C301.757669,69.8481999 302.817236,74.8837638 304.936401,77.9890747 C307.055566,81.0943856 310.486044,82.6470178 315.227937,82.6470178 C317.158266,82.6470178 319.109547,82.2693505 321.081839,81.5140046 C323.054131,80.7586587 324.858541,79.7305644 326.495124,78.4296909 Z M413.359469,97.9426959 L362.877437,97.9426959 L362.877437,81.5769498 L376.347704,81.5769498 L376.347704,20.583073 L362.877437,20.583073 L362.877437,4.21732688 L413.359469,4.21732688 L413.359469,20.583073 L399.889201,20.583073 L399.889201,81.5769498 L413.359469,81.5769498 L413.359469,97.9426959 Z" id=".needI-Copy-2"></path>
            </g>
        </g>
    </g>
</svg>